<?xml version="1.0" encoding="utf-8"?>
<!-- Generator: Adobe Illustrator 25.2.1, SVG Export Plug-In . SVG Version: 6.00 Build 0)  -->
<svg version="1.1" id="Layer_1" xmlns="http://www.w3.org/2000/svg" xmlns:xlink="http://www.w3.org/1999/xlink" x="0px" y="0px"
	 viewBox="0 0 2416.8 1409.8" style="enable-background:new 0 0 2416.8 1409.8;" xml:space="preserve">
<style type="text/css">
	.st0{fill:#242F3E;}
	.st1{fill:#FFFFFF;}
</style>
<g id="XMLID_1_">
	<g>
		<path class="st0" d="M2297.5,545.9c9.6,21.1,3,66,3,93c-2.8,2.1,5.5,219.3-3,218c-148,1.1-172.3-3.5-158,153
			c18.7,211.4-53.3,294.9-245,276c-391.1,0.5-1171.7-2-1563,0c-117.3,17.3-226.6-55.2-215-180c4.1-17.8-2.6-583.4,1-621
			c7.1-123.5-44-304.9,105.1-358c35.1-22.6,1591.1-0.4,1630.9-8C2406.5,62,1913,604.4,2297.5,545.9z M1295.5,778.5
			c22.1-10.7,438.7,137,421.7,53.7c-32-40.2-90.2-63.2-134.4-91L1250,528.3c-182-150.1-176.5-22.2-165.4,144.7
			c-70.6-21.9-387.8-105.4-423.8-64.1c9,46.1,96.2,77.1,132.3,99.3c95.7,33.8,399.4,317.5,494.1,270.8
			C1312.9,946.1,1289.9,822.3,1295.5,778.5z"/>
		<path class="st1" d="M2412.5,816.9c9,106,9.5,172.7-123,155c-91.4-21.8,37.1,273.7-154,381c-241,114.1-1434.9,15.9-1722,47.1
			c-138,13.1-296.9-2-369-127.1c-48.2-76.6-40-171.5-40-295c19.2-185.9-38.1-668.5,30-830c40.8-75.7,122.9-136.4,215-142
			c27-5.7,1302.2,0.9,1332.1-1c235.5,14.7,622.5-91.2,670.9,242c12.4,257.8-54.4,149.1,140,197
			C2441.6,501.9,2398.8,740.5,2412.5,816.9z M2300.5,638.9c0-27,6.6-71.9-3-93c-384.4,58.5,109.1-483.9-444-427
			c-39.8,7.6-1595.8-14.6-1630.9,8c-149.1,53.1-98,234.5-105.1,358c-3.6,37.6,3.1,603.2-1,621c-11.6,124.8,97.7,197.3,215,180
			c391.3-2,1171.9,0.5,1563,0c191.7,18.9,263.7-64.6,245-276c-14.3-156.5,10-151.9,158-153C2306,858.2,2297.6,641,2300.5,638.9z"/>
		<path class="st1" d="M1717.2,832.2c17,83.2-399.7-64.4-421.7-53.7c-5.6,43.9,17.5,167.7-8.3,200.5
			c-94.7,46.7-398.4-237-494.1-270.8C757,686,669.8,655,660.8,608.9c36-41.3,353.2,42.2,423.8,64.1
			c-11.1-166.9-16.6-294.8,165.4-144.7l332.8,212.9C1627,769,1685.2,792,1717.2,832.2z"/>
	</g>
	<g>
	</g>
</g>
</svg>
