<?xml version="1.0" encoding="utf-8"?>
<!-- Generator: Adobe Illustrator 25.2.1, SVG Export Plug-In . SVG Version: 6.00 Build 0)  -->
<svg version="1.1" id="Layer_1" xmlns="http://www.w3.org/2000/svg" xmlns:xlink="http://www.w3.org/1999/xlink" x="0px" y="0px"
	 viewBox="0 0 2300.8 1401.1" style="enable-background:new 0 0 2300.8 1401.1;" xml:space="preserve">
<style type="text/css">
	.st0{fill:#242F3E;}
	.st1{fill:#FFFFFF;}
</style>
<g id="XMLID_1_">
	<g>
		<path class="st0" d="M1460.4,599c18.8,24.9,1.6,42.4-30,35c-10.9-4.6-33.7-50.6-31-60C1434,566,1450.4,572.8,1460.4,599z"/>
		<path class="st0" d="M121.4,572c4,19.1-17.9,47-27,62c-14,2.7-23.5-1.6-31-8c0.7-22.1,10.8-42.6,23-54H121.4z"/>
		<path class="st0" d="M309.4,1262c32.5,96-226.7,114.1-194-16C165.1,1261.8,238.5,1262.5,309.4,1262z"/>
		<path class="st0" d="M1404.4,1246c17.9,14.4-5.2,60.5-11,68c-44.9,35.9-196.6,36.2-184-49
			C1263.3,1243.1,1363.8,1281.8,1404.4,1246z"/>
		<path class="st1" d="M2296.4,1031c10.9,15.5-1.3,46.1-9,52c-107.7-1.7-575.3,1.6-672-1c-7.9-3.9-6.8-18.1-6-28
			c-5.8-45.6,27.3-21.2,51-33c-0.3-253.3-0.7-506.7-1-760c-21.1-4.4-43.2,12.5-52,27c-60.1,179.8,105.9,625.1-133,684
			c-30.7,157.2,91.1,449-176,425c-93.6,9.5-152.2-45.7-155-135c-5.4,15.3-825.6-38.7-769,37c-20.1,131.3-234.9,120.6-297,54
			c-54.1-174.6-31.6-480.4-12-654c-93.9-21.5-74.2-139.8-19-179c26.9-14.4,71.3-8,108-11c54.6-79.6,75.9-232.4,166-272
			c126.2-39,517.4-5.4,659-16c79.7,0,179.9-9.6,231,20c84.4,48.9,105.1,183.9,156,267c43.8,6.4,94.4-5.2,123,15
			c55.4,42.9,63.2,172.2-32,176c25.1,65.4,9.6,137.5,16,205c189.3-84.7-93.6-691.9,185-709c5.1-91.4-22.3-167.3,56-191h383
			c202.6-28.5,144.3,98.9,149,243c2,149.9-8.1,640.5,4,777C2263.3,1026.1,2288.6,1021,2296.4,1031z M2180.4,1023
			c7.5-239.7,9.7-715.4,0-956h-454c-13.2,27.3-4,166.9-4,210c6.7,153.2-11.6,603.9,3,745c17.6,11.5,79.1,3,107,3L2180.4,1023z
			 M1430.4,634c31.6,7.4,48.8-10.1,30-35c-10-26.2-26.4-33-61-25C1396.7,583.3,1419.5,629.4,1430.4,634z M1408.4,869
			c3.4-148.6-2.3-85.5-146-82c-365.7,30.7-795,22-1145-17c-6.2,96.1-18,333.9,13,406c23.9,29.7,83.6,23,137,23
			c162.6-11.3,969.4,20.8,1110-10C1427.4,1161.6,1408.4,951.9,1408.4,869z M1393.4,1314c5.8-7.5,28.9-53.6,11-68
			c-40.6,35.8-141.1-2.9-195,19C1196.8,1350.2,1348.6,1349.9,1393.4,1314z M1387.4,707c2.1-2-134.3-283.2-134-285
			c-17.8-39.8-34.7-98.5-70-121c-138.5-47.8-641.1-3.7-799-18c-88.7,17.5-99.3,111.8-135,181c1.9,2-121.1,243.2-113,244
			C542.8,754.5,982,755.3,1387.4,707z M115.4,1246c-32.7,130.1,226.5,112,194,16C238.5,1262.5,165.1,1261.8,115.4,1246z M94.4,634
			c9.1-15,31-42.9,27-62h-35c-12.2,11.4-22.3,31.9-23,54C70.9,632.3,80.4,636.7,94.4,634z"/>
		<path class="st0" d="M2180.4,67c9.7,240.6,7.5,716.3,0,956l-348,2c-27.9,0-89.4,8.5-107-3c-14.6-141.1,3.7-591.8-3-745
			c0-43.1-9.2-182.7,4-210H2180.4z M2046.4,315c171.1,19.4,96.9-29.5,112-172c-72.4-15.5-323.1,2.3-403-4c-20,11-10,161.2-3,175
			L2046.4,315z M1957.4,845c12.3-36.8,160.4-208.6,131-239c-15.9-12.4-75.8-1.3-97-4c-5.2-10.6,66.3-212.3,26-204
			c-19.4,15.5-30.5,43.6-44,65l-103,161c-73.1,91.5-12,83.8,70,80C1923.9,753.7,1857.6,1033,1957.4,845z"/>
		<path class="st1" d="M2158.4,143c-15.1,142.5,59.1,191.4-112,172l-294-1c-7-13.8-17-164,3-175
			C1835.4,145.2,2086.1,127.5,2158.4,143z M2093.4,253c6.9-3.5,6-40.9,2-48c-20.5-8.2-244.1-9.2-284,1c-5.7,9.4-2.3,38.4,2,46
			L2093.4,253z"/>
		<path class="st0" d="M2095.4,205c4,7.1,4.9,44.5-2,48l-280-1c-4.3-7.6-7.7-36.6-2-46C1851.3,195.7,2074.9,196.8,2095.4,205z"/>
		<path class="st1" d="M2088.4,606c29.4,30.4-118.7,202.2-131,239c-99.9,188-33.5-91.3-17-141c-82,3.8-143.1,11.5-70-80l103-161
			c13.5-21.4,24.6-49.5,44-65c40.3-8.3-31.2,193.4-26,204C2012.7,604.7,2072.5,593.5,2088.4,606z"/>
		<path class="st0" d="M1262.4,787c143.7-3.5,149.4-66.6,146,82c0,82.9,19,292.6-31,320c-140.6,30.8-947.4-1.3-1110,10
			c-53.4,0-113.1,6.7-137-23c-31-72.1-19.2-309.9-13-406C467.4,809,896.7,817.7,1262.4,787z M1230.4,1118
			c131-18.9,125.1-213.2-20-210c-45.4,13.9-75,27.8-90,71C1094.9,1052.5,1155.1,1128.8,1230.4,1118z M1028.4,969
			c5.3-8.4,8.7-50.6,2-59c-93.5-13.1-432.2,2.6-535-3c-4.1,5.9-14.1,56.8-2,63L1028.4,969z M1027.4,1053c10.4-4,8.1-51.9,2-60
			c-92.2-12.9-431.5,2.4-533-3c-9.4,9.3-10.8,47.8-3,61L1027.4,1053z M307.4,1117c131-18.9,125.1-213.2-20-210
			c-45.4,13.9-75,27.8-90,71C171.9,1051.5,232.1,1127.8,307.4,1117z"/>
		<path class="st0" d="M1253.4,422c-0.3,1.8,136.1,283,134,285c-405.5,48.3-844.6,47.5-1251,1c-8.1-0.8,114.9-242,113-244
			c35.7-69.2,46.3-163.5,135-181c157.9,14.3,660.5-29.8,799,18C1218.7,323.5,1235.6,382.2,1253.4,422z"/>
		<path class="st1" d="M1210.4,908c145.1-3.2,151,191.1,20,210c-75.3,10.8-135.6-65.5-110-139C1135.4,935.8,1165,921.9,1210.4,908z"
			/>
		<path class="st1" d="M1030.4,910c6.7,8.4,3.3,50.6-2,59l-535,1c-12.1-6.2-2.1-57.1,2-63C598.2,912.5,936.9,896.9,1030.4,910z"/>
		<path class="st1" d="M1029.4,993c6.1,8.1,8.4,56-2,60l-534-2c-7.8-13.2-6.4-51.7,3-61C597.9,995.4,937.3,980.1,1029.4,993z"/>
		<path class="st1" d="M287.4,907c145.1-3.2,151,191.1,20,210c-75.3,10.8-135.5-65.5-110-139C212.4,934.8,242,920.9,287.4,907z"/>
	</g>
	<g>
	</g>
</g>
</svg>
