<?xml version="1.0" encoding="utf-8"?>
<!-- Generator: Adobe Illustrator 25.2.1, SVG Export Plug-In . SVG Version: 6.00 Build 0)  -->
<svg version="1.1" id="Layer_1" xmlns="http://www.w3.org/2000/svg" xmlns:xlink="http://www.w3.org/1999/xlink" x="0px" y="0px"
	 viewBox="0 0 2297.8 2210.2" style="enable-background:new 0 0 2297.8 2210.2;" xml:space="preserve">
<style type="text/css">
	.st0{fill:#242F3E;}
	.st1{fill:#FFFFFF;}
</style>
<g id="XMLID_1_">
	<g>
		<path class="st0" d="M2021,1317.4c3.3,8.7-332.9,0.1-334,3c-7.9-13.9,1.4-49.4,3-68c11.7-201.1,25.1-401.8,40-602
			c14.4-180.2,14.1-380.7,42-554l167,1c10.6,19.6,1,54,5,80C1970.3,554.2,1998,940.4,2021,1317.4z"/>
		<path class="st0" d="M2197,1414.4c7.5,11.9,5,39.6,5,58v637c-380.3,13.4-1699.3-4.5-2103,3c-4.2-159.6-2.7-604.3-1-760l93-56
			c58.1-37.1,191.7-113.9,247-151c8,3.4-0.1,22.7,3,34c4.5,68.7-6.1,158.3,3,222c79.7-32.2,353.5-210.5,436-256
			c10.9,77.8-8.7,180.7,5,256c77.1-31.7,354.3-212.1,435-256c8.5,41.4-0.6,219.3,3,266c13.6,8.8,46.3,5,68,5
			C1546.8,1412.9,2051.1,1423.1,2197,1414.4z M1268.1,1793.5c16.2-8.2,303.4,96.1,293.2,37.3c-22.2-27.9-62.7-43.9-93.4-63.2
			l-231.4-148c-126.6-104.4-122.7-15.4-115,100.6c-73.7-24.2-468.8-118.7-202.6,24.5c69.1,24.1,273.6,219.7,343.5,188.2
			C1280.2,1910.1,1264.2,1824.1,1268.1,1793.5z"/>
		<path class="st1" d="M2295,1323.4c6.8,287.9-1,592.6,1,881c-0.6,14-2286.9-2.7-2291,3c-11.2-299,0.6-606.2-3-908
			c168.8-102.8,357.9-223.8,532-316c11.3,77.8-8,182.8,7,255c135.8-83.7,278-164.3,413-250c3.9-2.8,17.7-9.1,22-2
			c4.2,41.8-5.9,214.9,2,252c84.7-41,355.9-225.3,437-255c7.3,106.1-6.7,233.6,6,336l162,1c11.2-9.6,8-57.4,11-77
			c25.9-392.1,50.8-793,80-1185c2.9-18.1-3.3-42.4,4-56c13.4,2.7,338.8-7.5,350,1c25.6,331.2,44.9,668.7,69,1000
			C2134.5,1336.5,2028.7,1325.6,2295,1323.4z M2202,1472.4c0-18.4,2.5-46.1-5-58c-145.8,8.7-650.1-1.6-806,2c-21.7,0-54.4,3.8-68-5
			c-3.6-46.7,5.5-224.6-3-266c-80.7,43.9-357.9,224.3-435,256c-13.7-75.3,5.9-178.2-5-256c-82.5,45.5-356.3,223.8-436,256
			c-9.1-63.7,1.5-153.3-3-222c-3.1-11.3,5-30.6-3-34c-55.3,37.1-188.9,113.9-247,151l-93,56c-1.7,155.7-3.2,600.4,1,760
			c403.7-7.5,1722.7,10.4,2103-3V1472.4z M1687,1320.4c1.1-2.9,337.3,5.7,334-3c-23-377-50.6-763.2-77-1140c-4-26,5.6-60.4-5-80
			l-167-1c-27.9,173.3-27.6,373.8-42,554c-14.9,200.2-28.3,400.9-40,602C1688.3,1271,1679.1,1306.5,1687,1320.4z"/>
		<path class="st1" d="M1561.3,1830.9c10.2,58.8-277-45.5-293.2-37.3c-3.8,30.5,12.2,116.6-5.8,139.4
			c-69.9,31.5-274.3-164.2-343.5-188.2c-266.2-143.1,128.9-48.6,202.6-24.5c-7.7-116-11.6-205,115-100.6l231.4,148
			C1498.6,1787,1539,1802.9,1561.3,1830.9z"/>
	</g>
	<g>
	</g>
</g>
</svg>
