<?xml version="1.0" encoding="utf-8"?>
<!-- Generator: Adobe Illustrator 25.2.1, SVG Export Plug-In . SVG Version: 6.00 Build 0)  -->
<svg version="1.1" id="Layer_1" xmlns="http://www.w3.org/2000/svg" xmlns:xlink="http://www.w3.org/1999/xlink" x="0px" y="0px"
	 viewBox="0 0 2171.5 2182.4" style="enable-background:new 0 0 2171.5 2182.4;" xml:space="preserve">
<style type="text/css">
	.st0{fill:#242F3E;}
	.st1{fill:#FFFFFF;}
</style>
<g id="XMLID_1_">
	<g>
		<path class="st0" d="M1088.4,78.7l998,766c-8.8,19.4-30.8,30.6-39,50l-8,7c-246.5-182.1-487.9-370.6-736-551
			c-42.2-37.2-96.2-70.5-140-105c-22-17.8-44.2-42.9-76-50c-30.3-6.8-50.3,24.9-66,36c-56.4,40-114,80.2-166,125
			c-246.2,176.4-484,369.1-729,546c-4.5-6.3-41.8-54.1-41-57c77.5-56.7,154.9-117.3,232-175c173.1-136.4,362.2-276.5,535-412
			c42.2-30.9,125.4-92.1,167-127C1041.3,115.5,1071.7,99.9,1088.4,78.7z"/>
		<path class="st0" d="M1084.4,274.7l805,604c-1.7,410-3.3,820-5,1230h-1610v-1227C426.9,769.1,940.3,380,1084.4,274.7z
			 M1273.9,1333.4c17.5-27.7,86.4-106.7,45.8-137.5c-31.2-21.7-139.9-6.5-185.4-5.7c-0.8-2,80.2-362.7,80.2-364.9
			c-2.8-16.3-13.2-24-30.6-26.7c-37.1,29.6-58.3,83.3-84,124.2l-196.7,307.5c-140.6,182.7-26,156.4,133.7,152.8
			c-20.2,65.3-97.4,358.3-59.2,391.6c42.6-8.4,71.2-88.9,91.7-122.3L1273.9,1333.4z"/>
		<path class="st1" d="M2169.4,830.7c12.8,32.2-34.7,67.6-48,85c-62.7,92.1-79.2,88.8-159,17c-7.5,371.2-1.3,747.2-7,1120
			c-5,42.4,9.4,84.9-13,115c-13.2,17.7-77.5,15.7-107,13c-345.5,0.3-1158.5-1.3-1505-1c-37.4-2.5-86.7,9.9-114-10
			c-42.4,0.8,1.3-1195.6-14-1234c-41.1,27-86.4,97.3-125,19l-73-93c-6.4-10.6-5.6-29.2,1-39c319.4-259.9,657.1-504.7,985-757
			c77.9-52.1,82.8-105.4,167-23c319.3,234.8,627.3,486.4,944,725C2125.1,785.3,2157.7,801.3,2169.4,830.7z M2086.4,844.7l-998-766
			c-16.7,21.3-47.1,36.8-69,53c-41.6,34.9-124.8,96.1-167,127c-172.8,135.5-361.9,275.6-535,412c-77.1,57.7-154.5,118.3-232,175
			c-0.8,2.9,36.5,50.7,41,57c245-176.9,482.8-369.6,729-546c52-44.8,109.6-85,166-125c15.7-11.1,35.7-42.8,66-36
			c31.8,7.1,54,32.2,76,50c43.8,34.5,97.8,67.8,140,105c248.1,180.4,489.5,368.9,736,551l8-7
			C2055.6,875.3,2077.6,864.1,2086.4,844.7z M1889.4,878.7l-805-604c-144.1,105.3-657.5,494.4-810,607v1227h1610
			C1886,1698.7,1887.7,1288.7,1889.4,878.7z"/>
		<path class="st1" d="M1319.7,1195.8c40.6,30.9-28.4,109.8-45.8,137.5l-204.4,319c-20.5,33.3-49.1,113.9-91.7,122.3
			c-38.2-33.3,39-326.3,59.2-391.6c-159.8,3.6-274.4,29.9-133.7-152.8L1100,922.7c25.7-40.8,46.9-94.6,84-124.2
			c17.4,2.7,27.7,10.4,30.6,26.7c-0.1,2.2-81,362.9-80.2,364.9C1179.8,1189.3,1288.5,1174.1,1319.7,1195.8z"/>
	</g>
	<g>
	</g>
</g>
</svg>
