<?xml version="1.0" encoding="utf-8"?>
<!-- Generator: Adobe Illustrator 25.2.1, SVG Export Plug-In . SVG Version: 6.00 Build 0)  -->
<svg version="1.1" id="Layer_1" xmlns="http://www.w3.org/2000/svg" xmlns:xlink="http://www.w3.org/1999/xlink" x="0px" y="0px"
	 viewBox="0 0 1308.3 1306.7" style="enable-background:new 0 0 1308.3 1306.7;" xml:space="preserve">
<style type="text/css">
	.st0{fill:#242F3E;}
	.st1{fill:#FFFFFF;}
</style>
<g id="XMLID_1_">
	<g>
		<path class="st0" d="M568.4,412.2c362.3-102.4,466,440.2,124,492C393.6,953.4,282.1,511.3,568.4,412.2z"/>
		<path class="st1" d="M1123.4,606.2c65.2-1.3,216.7-20.8,179,67c-20.4,51.7-167.2,22.2-196,20
			C1065.7,672.2,1091,617.2,1123.4,606.2z"/>
		<path class="st1" d="M1126.4,1062.2c13.8,45.8-25.4,75.7-65,63c-32.8-48.2-183.2-121.2-82-180
			C1015.7,927.1,1103.7,1046.7,1126.4,1062.2z"/>
		<path class="st1" d="M1069.4,177.2c142.9,8.1-8.9,149.9-58,180c-10.4,4.7-31.8,4.3-41-1C886.4,307.5,1028.1,206,1069.4,177.2z"/>
		<path class="st1" d="M748.4,316.2c339,72.8,338.2,656.8-68,684c-232.7,32-425.6-207.2-364-444C362.5,367.7,572,270.2,748.4,316.2z
			 M692.4,904.2c342-51.8,238.3-594.4-124-492C282.1,511.3,393.6,953.4,692.4,904.2z"/>
		<path class="st1" d="M647.4,1084.2c63.5-0.5,52,61.2,52,122c-2.9,34.4,11.5,85.1-32,98c-74.2,17.8-61-64-61-121
			C604.2,1138.5,597.9,1095.3,647.4,1084.2z"/>
		<path class="st1" d="M692.4,18.2c5.1,37,38.4,198.6-36,202c-83.1,10.1-47.8-163-44-201C628.6-6.6,679.3-5.8,692.4,18.2z"/>
		<path class="st1" d="M359.4,297.2c9.1,42.3-21.5,70.9-61,62c-36-27.6-190.9-149.2-85-182C259.1,168.2,339.8,266.4,359.4,297.2z"/>
		<path class="st1" d="M307.4,944.2c133.8,14.2-19.7,151.9-64,181c-12,5-36.5,2.4-45-3C123.2,1069,265.2,971.2,307.4,944.2z"/>
		<path class="st1" d="M35.4,606.2c64.4-1.3,214.3-22.6,182,64c-16.7,54.2-158.1,25.4-192,25C-17.9,677.2,0.1,619.6,35.4,606.2z"/>
	</g>
	<g>
	</g>
</g>
</svg>
