<?xml version="1.0" encoding="utf-8"?>
<!-- Generator: Adobe Illustrator 25.2.1, SVG Export Plug-In . SVG Version: 6.00 Build 0)  -->
<svg version="1.1" id="svg2" xmlns="http://www.w3.org/2000/svg" xmlns:xlink="http://www.w3.org/1999/xlink" x="0px" y="0px"
	 viewBox="0 0 2500 822" style="enable-background:new 0 0 2500 822;" xml:space="preserve">
<style type="text/css">
	.st0{fill:#232C38;}
</style>
<g id="g10" transform="matrix(1.25 0 0 -1.25 0 303.637)">
	<g id="g12" transform="scale(.24)">
		<path id="path14" class="st0" d="M2889.5,603.2c19.5,0,29.2-14.6,26.8-39l-7.3-122.1c0-7.3-4.9-17.1-19.5-19.5l-70.7-4.9h-7.3
			v-1010c0-492.7-192.7-727.1-685.7-727.1c-470.8,0-676,158.6-676,727.1v1010l-75.5,4.9c-17.1,0-24.4,17.1-21.9,39l7.3,122.1
			c0,12.2,7.3,19.5,19.5,19.5h417.2c19.5,0,29.2-14.6,26.8-39l-7.3-122.1c0-7.3-4.9-17.1-19.5-19.5l-70.7-4.9V-641
			c0-302.7,90.1-465.9,397.7-465.9c341.6,0,419.6,209.8,419.6,465.9V417.8l-75.5,4.9c-17.1,0-24.4,17.1-21.9,39l7.3,122.1
			c0,12.2,7.3,19.5,19.5,19.5H2889.5"/>
		<path id="path16" class="st0" d="M5414.6,603.2c19.5,0,29.2-14.6,26.8-39l-7.3-122.1c0-7.3-4.9-17.1-19.5-19.5l-68.2-4.9
			l-412.3-1622.4c-14.6-53.6-58.5-85.3-112.1-85.3l-190.3,7.3c-26.8,0-36.5,17.1-43.9,43.9L4256,188.5h-2.4l-327-1363.8
			c-12.2-48.7-43.9-117.2-129.4-114.8l-183,7.3c-21.9,0-36.5,12.2-43.9,43.9L3170.2,417.8l-73.1,4.9c-17.1,0-24.4,17.1-21.9,39
			l7.3,122.1c0,12.2,7.3,19.5,19.5,19.5h402.5c19.5,0,29.2-14.6,26.8-39l-7.3-122.1c0-7.3-4.9-17.1-19.5-19.5l-68.2-4.9
			l311.9-1422.3h2.4l348.9,1495.7c19.5,85.3,60.9,114.8,119.7,112.3l139.1-7.3c24.4-2.4,34.1-14.6,41.4-46.3l353.8-1554.1h2.4
			l326.7,1422l-73.1,4.9c-17.1,0-24.4,17.1-21.9,39l7.3,122.1c0,12.2,7.3,19.5,19.5,19.5H5414.6"/>
		<path id="path18" class="st0" d="M6424.7-609.3l-317.3,900.4h-2.4l-300.2-900.4H6424.7L6424.7-609.3z M6959-1109.6
			c17.1,0,24.4-17.1,21.9-39l-7.3-122.1c0-12.2-7.3-19.5-17.1-19.5h-426.9c-19.5,0-29.2,14.6-26.8,39l7.3,122.1
			c0,7.3,4.9,17.1,19.5,19.5l68.2,4.9l-95,270.7h-773.4l-90.1-270.7l75.5-4.9c17.1,0,24.4-17.1,21.9-39l-7.3-122.1
			c0-12.2-7.3-19.5-19.5-19.5h-412.3c-19.5,0-29.2,14.6-26.8,39l7.3,122.1c0,7.3,4.9,17.1,19.5,19.5l68.2,4.9l546.6,1522.5
			l-73.1,4.9c-17.1,0-24.4,17.1-21.9,39l7.3,122.1c0,12.2,7.3,19.5,19.5,19.5h387.9l653.8-1707.9L6959-1109.6"/>
	</g>
</g>
</svg>
