<?xml version="1.0" encoding="utf-8"?>
<!-- Generator: Adobe Illustrator 25.2.1, SVG Export Plug-In . SVG Version: 6.00 Build 0)  -->
<svg version="1.1" id="Layer_1" xmlns="http://www.w3.org/2000/svg" xmlns:xlink="http://www.w3.org/1999/xlink" x="0px" y="0px"
	 viewBox="0 0 845.2 1318.3" style="enable-background:new 0 0 845.2 1318.3;" xml:space="preserve">
<style type="text/css">
	.st0{fill:#242F3E;stroke:#000000;stroke-miterlimit:10;}
	.st1{fill:#242F3E;}
	.st2{fill:#FFFFFF;}
	.st3{fill:none;stroke:#000000;stroke-miterlimit:10;}
</style>
<rect x="377.7" y="575" class="st0" width="88.1" height="704.5"/>
<g id="XMLID_1_">
	<g>
		<path class="st1" d="M342,499c45.3,41.1,21.2,44.2-4,85c-13.1-7-295.1,146.4-288,87C128.1,617.2,261.4,551.3,342,499z"/>
		<path class="st1" d="M417,423c61.4-1.9,64.2,78.2,12,88C373,519.3,360.9,434.3,417,423z"/>
		<path class="st1" d="M435,97c-2.8,90.9,7.1,194.3-1,283c-52.7,22-46.6-6.7-69-43c20.1-96.4,19-208.3,50-297
			C448.6,34.5,430,72.4,435,97z"/>
		<path class="st1" d="M564,480c0.9,11.6,269.5,186.7,225,205c-79-31.5-227.1-122.6-298-170C510.4,463,516.4,479.3,564,480z"/>
		<path class="st2" d="M845,652c2.9,18.9-31.3,91.5-56,86L455,545c-7.8-1.8-12.7,4.7-18,6h-27c-29.7,92-279.9,150.2-353,187
			c-18.6,3.3-56.6-62.6-57-81c80.7-62.9,252.8-144.8,340-203c2.7-11.5,11.7-32.9,18-43l-36-71c24.4-105.6,28.1-232.6,55-335
			c17.2-6.4,48,2.6,67-5c15.4-0.5,20.6,3.3,29,9c9.5,106.8,0.2,280.4,2,389c1.2,3.7,29.6,40,33,41C583,405.2,791,619.4,845,652z
			 M789,685c44.5-18.3-224.1-193.4-225-205c-47.6-0.7-53.6-17-73,35C561.9,562.4,710,653.5,789,685z M434,380
			c8.1-88.7-1.8-192.1,1-283c-5-24.6,13.6-62.5-20-57c-31,88.7-29.9,200.6-50,297C387.4,373.3,381.3,402,434,380z M429,511
			c52.2-9.8,49.4-89.9-12-88C360.9,434.3,373,519.3,429,511z M338,584c25.2-40.8,49.3-43.9,4-85c-80.6,52.3-213.9,118.2-292,172
			C42.9,730.4,324.9,577,338,584z"/>
		<path class="st2" d="M505,1211c10.4,69.4-12.1,115.6-76,106c-41.7,0-64-2.5-81-26c-17.4-189.6,13.7-405.2,12-599
			c1.7-25-2.9-47.5,15-56c73.3-5.1-5.9,540,11,635c17.3,4.3,61.5,8.2,75-1c5-9.2-0.1-113.4-2-132c15.4-34.2-66.5-648.3,23-553
			C492.5,724.3,500,1066.1,505,1211z"/>
	</g>
	<g>
		<path class="st3" d="M505,1211c10.4,69.4-12.1,115.6-76,106c-41.7,0-64-2.5-81-26c-17.4-189.6,13.7-405.2,12-599
			c1.7-25-2.9-47.5,15-56c73.3-5.1-5.9,540,11,635c17.3,4.3,61.5,8.2,75-1c5-9.2-0.1-113.4-2-132c15.4-34.2-66.5-648.3,23-553
			C492.5,724.3,500,1066.1,505,1211z"/>
		<path class="st3" d="M845,652c2.9,18.9-31.3,91.5-56,86L455,545c-7.8-1.8-12.7,4.7-18,6h-27c-29.7,92-279.9,150.2-353,187
			c-18.6,3.3-56.6-62.6-57-81c80.7-62.9,252.8-144.8,340-203c2.7-11.5,11.7-32.9,18-43l-36-71c24.4-105.6,28.1-232.6,55-335
			c17.2-6.4,48,2.6,67-5c15.4-0.5,20.6,3.3,29,9c9.5,106.8,0.2,280.4,2,389c1.2,3.7,29.6,40,33,41C583,405.2,791,619.4,845,652z"/>
		<path class="st3" d="M789,685c44.5-18.3-224.1-193.4-225-205c-47.6-0.7-53.6-17-73,35C561.9,562.4,710,653.5,789,685z"/>
		<path class="st3" d="M434,380c8.1-88.7-1.8-192.1,1-283c-5-24.6,13.6-62.5-20-57c-31,88.7-29.9,200.6-50,297
			C387.4,373.3,381.3,402,434,380z"/>
		<path class="st3" d="M429,511c52.2-9.8,49.4-89.9-12-88C360.9,434.3,373,519.3,429,511z"/>
		<path class="st3" d="M338,584c25.2-40.8,49.3-43.9,4-85c-80.6,52.3-213.9,118.2-292,172C42.9,730.4,324.9,577,338,584z"/>
	</g>
</g>
</svg>
